<?xml version="1.0" encoding="UTF-8"?>
<svg xmlns="http://www.w3.org/2000/svg" xmlns:xlink="http://www.w3.org/1999/xlink" width="251px" height="155px" viewBox="0 0 251 155" version="1.1">
<g id="surface1">
<path style=" stroke:none;fill-rule:nonzero;fill:rgb(100%,100%,100%);fill-opacity:1;" d="M 155.804688 136.40625 L 105.140625 112.023438 C 100.148438 109.625 97.992188 103.550781 100.429688 98.515625 L 124.785156 47.792969 C 127.179688 42.796875 133.246094 40.636719 138.277344 43.074219 C 145.144531 46.394531 149.097656 48.269531 149.097656 48.269531 L 149.058594 4.625 L 155.726562 4.582031 L 155.765625 51.390625 C 155.765625 51.390625 178.683594 61.0625 188.945312 67.417969 C 190.421875 68.335938 193.019531 70.136719 194.097656 73.171875 C 194.933594 75.613281 194.894531 78.410156 193.695312 80.886719 L 169.339844 131.609375 C 166.867188 136.6875 160.796875 138.84375 155.804688 136.40625 Z M 155.804688 136.40625 "/>
<path style=" stroke:none;fill-rule:nonzero;fill:rgb(37.64706%,60.000002%,14.901961%);fill-opacity:1;" d="M 246.359375 2.746094 C 244.722656 1.105469 242.527344 1.144531 242.527344 1.144531 C 242.527344 1.144531 195.734375 3.785156 171.496094 4.34375 C 166.1875 4.464844 160.917969 4.582031 155.6875 4.625 C 155.6875 20.253906 155.6875 35.878906 155.6875 51.46875 C 153.492188 50.429688 151.253906 49.351562 149.058594 48.3125 C 149.058594 33.761719 149.019531 4.664062 149.019531 4.664062 C 137.441406 4.824219 113.402344 3.785156 113.402344 3.785156 C 113.402344 3.785156 56.949219 0.945312 50.800781 0.386719 C 46.886719 0.148438 41.816406 -0.453125 35.226562 0.984375 C 31.753906 1.707031 21.851562 3.945312 13.746094 11.738281 C -4.21875 27.765625 0.371094 53.269531 0.929688 57.105469 C 1.609375 61.78125 3.683594 74.773438 13.585938 86.082031 C 31.875 108.507812 71.242188 107.988281 71.242188 107.988281 C 71.242188 107.988281 76.074219 119.539062 83.460938 130.171875 C 93.441406 143.402344 103.703125 153.714844 113.683594 154.953125 C 138.835938 154.953125 189.105469 154.914062 189.105469 154.914062 C 189.105469 154.914062 193.898438 154.953125 200.40625 150.796875 C 205.996094 147.398438 210.984375 141.441406 210.984375 141.441406 C 210.984375 141.441406 216.136719 135.925781 223.324219 123.335938 C 225.519531 119.460938 227.355469 115.703125 228.953125 112.144531 C 228.953125 112.144531 250.992188 65.339844 250.992188 19.773438 C 250.554688 5.984375 247.160156 3.542969 246.359375 2.746094 Z M 47.882812 84.324219 C 37.542969 80.925781 33.152344 76.851562 33.152344 76.851562 C 33.152344 76.851562 25.523438 71.496094 21.691406 60.941406 C 15.105469 43.273438 21.132812 32.484375 21.132812 32.484375 C 21.132812 32.484375 24.488281 23.488281 36.503906 20.492188 C 42.015625 19.011719 48.882812 19.253906 48.882812 19.253906 C 48.882812 19.253906 51.71875 42.996094 55.152344 56.90625 C 58.027344 68.578125 65.054688 87.960938 65.054688 87.960938 C 65.054688 87.960938 54.632812 86.722656 47.882812 84.324219 Z M 167.785156 127.332031 C 167.785156 127.332031 165.347656 133.128906 159.957031 133.488281 C 157.644531 133.648438 155.847656 133.007812 155.847656 133.007812 C 155.847656 133.007812 155.726562 132.96875 153.730469 132.167969 L 108.652344 110.1875 C 108.652344 110.1875 104.300781 107.90625 103.542969 103.949219 C 102.664062 100.714844 104.621094 96.714844 104.621094 96.714844 L 126.300781 51.988281 C 126.300781 51.988281 128.21875 48.113281 131.171875 46.792969 C 131.410156 46.671875 132.089844 46.394531 132.96875 46.191406 C 136.203125 45.355469 140.15625 47.3125 140.15625 47.3125 L 184.355469 68.777344 C 184.355469 68.777344 189.386719 71.054688 190.464844 75.25 C 191.222656 78.210938 190.261719 80.847656 189.746094 82.125 C 187.230469 88.28125 167.785156 127.332031 167.785156 127.332031 Z M 167.785156 127.332031 "/>
<path style=" stroke:none;fill-rule:nonzero;fill:rgb(37.64706%,60.000002%,14.901961%);fill-opacity:1;" d="M 128.21875 94.796875 C 124.941406 94.835938 122.066406 97.117188 121.308594 100.3125 C 120.550781 103.511719 122.109375 106.828125 124.941406 108.308594 C 128.015625 109.90625 131.929688 109.027344 134.007812 106.148438 C 136.042969 103.3125 135.722656 99.394531 133.289062 96.914062 L 142.871094 77.289062 C 143.46875 77.332031 144.347656 77.371094 145.34375 77.089844 C 146.984375 76.730469 148.179688 75.652344 148.179688 75.652344 C 149.855469 76.371094 151.613281 77.171875 153.449219 78.089844 C 155.367188 79.050781 157.164062 80.046875 158.800781 81.007812 C 159.160156 81.207031 159.519531 81.445312 159.917969 81.765625 C 160.558594 82.285156 161.277344 83.007812 161.796875 83.964844 C 162.554688 86.164062 161.035156 89.921875 161.035156 89.921875 C 160.117188 92.957031 153.691406 106.148438 153.691406 106.148438 C 150.457031 106.070312 147.582031 108.148438 146.625 111.144531 C 145.585938 114.382812 147.0625 118.058594 150.175781 119.660156 C 153.292969 121.257812 157.125 120.339844 159.160156 117.539062 C 161.15625 114.824219 160.996094 111.027344 158.722656 108.507812 C 159.480469 107.027344 160.199219 105.550781 160.957031 103.992188 C 162.953125 99.832031 166.347656 91.839844 166.347656 91.839844 C 166.707031 91.160156 168.621094 87.722656 167.425781 83.324219 C 166.425781 78.769531 162.394531 76.652344 162.394531 76.652344 C 157.523438 73.492188 150.734375 70.574219 150.734375 70.574219 C 150.734375 70.574219 150.734375 68.9375 150.296875 67.738281 C 149.855469 66.5 149.179688 65.699219 148.738281 65.21875 C 150.617188 61.34375 152.492188 57.503906 154.367188 53.628906 C 152.730469 52.828125 151.136719 52.027344 149.496094 51.1875 C 147.582031 55.105469 145.625 59.0625 143.707031 62.980469 C 141.035156 62.941406 138.558594 64.378906 137.28125 66.738281 C 135.921875 69.257812 136.203125 72.375 138.039062 74.652344 C 134.765625 81.367188 131.492188 88.082031 128.21875 94.796875 Z M 128.21875 94.796875 "/>
</g>
</svg>
